<?xml version="1.0" encoding="UTF-8" standalone="no"?><!DOCTYPE svg PUBLIC "-//W3C//DTD SVG 1.1//EN" "http://www.w3.org/Graphics/SVG/1.1/DTD/svg11.dtd"><svg width="100%" height="100%" viewBox="0 0 417 417" version="1.1" xmlns="http://www.w3.org/2000/svg" xmlns:xlink="http://www.w3.org/1999/xlink" xml:space="preserve" xmlns:serif="http://www.serif.com/" style="fill-rule:evenodd;clip-rule:evenodd;stroke-linejoin:round;stroke-miterlimit:2;"><circle cx="208.333" cy="208.333" r="200" style="fill:url(#_Linear1);"/><g><path d="M208.333,28.807l12.079,25.646l0,25.647l-24.157,-0l-0,-25.647l12.078,-25.646Z" style="fill:#fff;fill-rule:nonzero;"/><path d="M335.278,81.389l-0,36.27l-18.135,18.135l-36.27,-36.27l18.135,-18.135l36.27,-0Z" style="fill:#fff;fill-rule:nonzero;"/><path d="M387.86,208.333l-25.647,12.084l-25.646,-0l-0,-24.167l25.646,0l25.647,12.083Z" style="fill:#fff;fill-rule:nonzero;"/><path d="M335.278,335.278l-36.27,-0l-18.135,-18.135l36.27,-36.27l18.135,18.135l-0,36.27Z" style="fill:#fff;fill-rule:nonzero;"/><path d="M208.333,387.86l-12.078,-25.647l-0,-25.646l24.157,-0l0,25.646l-12.079,25.647Z" style="fill:#fff;fill-rule:nonzero;"/><path d="M86.492,330.174l0,-34.811l17.406,-17.406l34.812,34.811l-17.406,17.406l-34.812,0Z" style="fill:#fff;fill-rule:nonzero;"/><path d="M28.807,208.333l25.646,-12.083l25.647,0l-0,24.167l-25.647,-0l-25.646,-12.084Z" style="fill:#fff;fill-rule:nonzero;"/><path d="M81.389,81.389l36.27,-0l18.135,18.135l-36.27,36.27l-18.135,-18.135l-0,-36.27Z" style="fill:#fff;fill-rule:nonzero;"/><circle cx="208.333" cy="208.333" r="99.742" style="fill:#fff;"/><circle cx="208.199" cy="208.619" r="54.233" style="fill:url(#_Linear2);"/><path d="M208.333,164.91l10.856,16.284l0,16.284l-21.711,-0l-0,-16.284l10.855,-16.284Z" style="fill:#fff;fill-rule:nonzero;"/><path d="M251.756,208.333l-15.672,10.856l-15.672,0l0,-21.711l15.672,-0l15.672,10.855Z" style="fill:#fff;fill-rule:nonzero;"/><path d="M208.333,251.756l-10.855,-16.283l-0,-16.284l21.711,0l0,16.284l-10.856,16.283Z" style="fill:#fff;fill-rule:nonzero;"/><path d="M164.91,208.333l16.301,-10.855l16.3,-0l0,21.711l-16.3,0l-16.301,-10.856Z" style="fill:#fff;fill-rule:nonzero;"/><circle cx="208.333" cy="208.333" r="18.998" style="fill:url(#_Linear3);"/></g><defs><linearGradient id="_Linear1" x1="0" y1="0" x2="1" y2="0" gradientUnits="userSpaceOnUse" gradientTransform="matrix(400,400,-400,400,8.33333,8.33333)"><stop offset="0" style="stop-color:#667eea;stop-opacity:1"/><stop offset="1" style="stop-color:#764ba2;stop-opacity:1"/></linearGradient><linearGradient id="_Linear2" x1="0" y1="0" x2="1" y2="0" gradientUnits="userSpaceOnUse" gradientTransform="matrix(108.466,108.466,-108.466,108.466,153.966,154.386)"><stop offset="0" style="stop-color:#667eea;stop-opacity:1"/><stop offset="1" style="stop-color:#764ba2;stop-opacity:1"/></linearGradient><linearGradient id="_Linear3" x1="0" y1="0" x2="1" y2="0" gradientUnits="userSpaceOnUse" gradientTransform="matrix(37.9951,37.9951,-37.9951,37.9951,189.336,189.336)"><stop offset="0" style="stop-color:#667eea;stop-opacity:1"/><stop offset="1" style="stop-color:#764ba2;stop-opacity:1"/></linearGradient></defs></svg>
